<svg id="Layer_1" data-name="Layer 1" xmlns="http://www.w3.org/2000/svg" xmlns:xlink="http://www.w3.org/1999/xlink" viewBox="0 0 100 100"><defs><style>.cls-1,.cls-2{fill:none;}.cls-2{clip-rule:evenodd;}.cls-3{opacity:0.29;}.cls-3,.cls-7{isolation:isolate;}.cls-4{clip-path:url(#clip-path);}.cls-5{clip-path:url(#clip-path-2);}.cls-6{clip-path:url(#clip-path-3);}.cls-8{clip-path:url(#clip-path-4);}.cls-9{clip-path:url(#clip-path-5);}.cls-10{fill:#3500fa;}.cls-11{clip-path:url(#clip-path-7);}.cls-12{clip-path:url(#clip-path-9);}.cls-13{clip-path:url(#clip-path-10);}.cls-14{clip-path:url(#clip-path-11);}.cls-15{fill:#f31b69;}.cls-16{clip-path:url(#clip-path-12);}.cls-17{fill:#02f99f;}</style><clipPath id="clip-path"><rect class="cls-1" x="-3.71" y="14.87" width="102.71" height="101.91"/></clipPath><clipPath id="clip-path-2"><rect class="cls-1" x="-2.79" y="14.94" width="101.71" height="101.69"/></clipPath><clipPath id="clip-path-3"><rect class="cls-1" x="-1.05" y="14.87" width="100.05" height="85.94"/></clipPath><clipPath id="clip-path-4"><rect class="cls-1" x="-2.91" y="14.87" width="101.91" height="101.91"/></clipPath><clipPath id="clip-path-5"><path class="cls-2" d="M-1.14,116.63l-1.65-.39c0-.2,5-20.54,19.93-43.06C30.9,52.39,56.19,25.41,98.52,14.94l.41,1.64c-41.8,10.34-66.78,37-80.37,57.53C3.81,96.38-1.09,116.43-1.14,116.63"/></clipPath><clipPath id="clip-path-7"><rect class="cls-1" x="-3.71" y="16.94" width="59.11" height="59.1"/></clipPath><clipPath id="clip-path-9"><rect class="cls-1" x="-3.71" y="16.73" width="59.34" height="59.34"/></clipPath><clipPath id="clip-path-10"><path class="cls-2" d="M25.85,76A29.55,29.55,0,1,1,55.4,46.5,29.59,29.59,0,0,1,25.85,76m0-57.41A27.86,27.86,0,1,0,53.71,46.5,27.89,27.89,0,0,0,25.85,18.64"/></clipPath><clipPath id="clip-path-11"><rect class="cls-1" x="-1.05" y="16.73" width="56.68" height="59.34"/></clipPath><clipPath id="clip-path-12"><path class="cls-2" d="M39.46,60.33,24,74.25v32.6H56.6L70.52,91.38V60.33Zm.58,1.5H68l-12,12H26.69ZM25.49,105.35h30v-30h-30ZM57,104.15V74.9l12-12V90.8Z"/></clipPath></defs><title>footer</title><g class="cls-3"><g class="cls-4"><g class="cls-5"><g class="cls-6"><g class="cls-7"><g class="cls-8"><g class="cls-9"><g class="cls-6"><rect class="cls-10" x="-4.12" y="13.61" width="104.38" height="104.35"/></g></g></g></g></g></g><g class="cls-11"><g class="cls-6"><g class="cls-7"><g class="cls-12"><g class="cls-13"><g class="cls-14"><rect class="cls-15" x="-5.04" y="15.61" width="61.77" height="61.76"/></g></g></g></g></g></g><g class="cls-16"><g class="cls-6"><rect class="cls-17" x="22.66" y="59" width="49.19" height="49.18"/></g></g></g></g></svg>