<?xml version="1.0" encoding="utf-8"?>
<!-- Generator: Adobe Illustrator 21.0.1, SVG Export Plug-In . SVG Version: 6.00 Build 0)  -->
<svg version="1.1" id="Layer_1" xmlns="http://www.w3.org/2000/svg" xmlns:xlink="http://www.w3.org/1999/xlink" x="0px" y="0px"
	 viewBox="0 0 180 60" style="enable-background:new 0 0 180 60;" xml:space="preserve">
<style type="text/css">
	.st0{clip-path:url(#SVGID_2_);}
	.st1{clip-path:url(#SVGID_4_);fill:#F1F0FD;}
	.st2{clip-path:url(#SVGID_6_);}
	.st3{clip-path:url(#SVGID_8_);fill:#F1F0FD;}
	.st4{clip-path:url(#SVGID_10_);}
	.st5{clip-path:url(#SVGID_12_);fill:#F1F0FD;}
	.st6{clip-path:url(#SVGID_14_);}
	.st7{clip-path:url(#SVGID_16_);fill:#F1F0FD;}
	.st8{clip-path:url(#SVGID_18_);}
	.st9{clip-path:url(#SVGID_20_);fill:#F1F0FD;}
	.st10{clip-path:url(#SVGID_22_);}
	.st11{clip-path:url(#SVGID_24_);fill:#F1F0FD;}
	.st12{clip-path:url(#SVGID_26_);}
	.st13{clip-path:url(#SVGID_28_);fill:#F1F0FD;}
	.st14{clip-path:url(#SVGID_30_);}
	.st15{clip-path:url(#SVGID_32_);fill:#F1F0FD;}
	.st16{clip-path:url(#SVGID_34_);}
	.st17{clip-path:url(#SVGID_36_);fill:#F1F0FD;}
	.st18{clip-path:url(#SVGID_38_);}
	.st19{clip-path:url(#SVGID_40_);fill:#F1F0FD;}
	.st20{clip-path:url(#SVGID_42_);}
	.st21{clip-path:url(#SVGID_44_);fill:#13063B;}
	.st22{clip-path:url(#SVGID_46_);}
	.st23{clip-path:url(#SVGID_48_);fill:#13063B;}
	.st24{clip-path:url(#SVGID_50_);}
	.st25{clip-path:url(#SVGID_52_);fill:#13063B;}
	.st26{clip-path:url(#SVGID_54_);}
	.st27{clip-path:url(#SVGID_56_);fill:#13063B;}
	.st28{clip-path:url(#SVGID_58_);}
	.st29{clip-path:url(#SVGID_60_);fill:#13063B;}
	.st30{clip-path:url(#SVGID_62_);}
	.st31{clip-path:url(#SVGID_64_);fill:#13063B;}
	.st32{clip-path:url(#SVGID_66_);}
	.st33{clip-path:url(#SVGID_68_);fill:#13063B;}
	.st34{clip-path:url(#SVGID_70_);}
	.st35{clip-path:url(#SVGID_72_);fill:#13063B;}
	.st36{clip-path:url(#SVGID_74_);}
	.st37{clip-path:url(#SVGID_76_);fill:#13063B;}
	.st38{clip-path:url(#SVGID_78_);}
	.st39{clip-path:url(#SVGID_80_);fill:#F1F0FD;}
	.st40{clip-path:url(#SVGID_82_);}
	.st41{clip-path:url(#SVGID_84_);fill:#F1F0FD;}
	.st42{clip-path:url(#SVGID_86_);}
	.st43{clip-path:url(#SVGID_88_);fill:#F1F0FD;}
	.st44{clip-path:url(#SVGID_90_);}
	.st45{clip-path:url(#SVGID_92_);fill:#F1F0FD;}
	.st46{clip-path:url(#SVGID_94_);}
	.st47{clip-path:url(#SVGID_96_);fill:#F1F0FD;}
	.st48{clip-path:url(#SVGID_98_);}
	.st49{clip-path:url(#SVGID_100_);fill:#F1F0FD;}
	.st50{clip-path:url(#SVGID_102_);}
	.st51{clip-path:url(#SVGID_104_);fill:#F1F0FD;}
	.st52{clip-path:url(#SVGID_106_);}
	.st53{clip-path:url(#SVGID_108_);fill:#F1F0FD;}
	.st54{clip-path:url(#SVGID_110_);}
	.st55{clip-path:url(#SVGID_112_);fill:#F1F0FD;}
	.st56{clip-path:url(#SVGID_114_);}
	.st57{clip-path:url(#SVGID_116_);fill:#F1F0FD;}
	.st58{clip-path:url(#SVGID_118_);}
	.st59{clip-path:url(#SVGID_120_);fill:#F1F0FD;}
	.st60{clip-path:url(#SVGID_122_);}
	.st61{clip-path:url(#SVGID_124_);fill:#F1F0FD;}
</style>
<g>
	<defs>
		<path id="SVGID_1_" d="M32.7,19.2c0,1.9-1.5,3.4-3.4,3.4c-1.9,0-3.4-1.5-3.4-3.4c0-1.9,1.5-3.4,3.4-3.4
			C31.2,15.8,32.7,17.3,32.7,19.2"/>
	</defs>
	<clipPath id="SVGID_2_">
		<use xlink:href="#SVGID_1_"  style="overflow:visible;"/>
	</clipPath>
	<g class="st0">
		<defs>
			<rect id="SVGID_3_" x="-29.5" y="-29.4" width="1220.5" height="4337.1"/>
		</defs>
		<clipPath id="SVGID_4_">
			<use xlink:href="#SVGID_3_"  style="overflow:visible;"/>
		</clipPath>
		<rect x="21.7" y="11.5" class="st1" width="15.3" height="15.3"/>
	</g>
</g>
<g>
	<defs>
		<path id="SVGID_5_" d="M35.2,25.5c0,2-1.6,3.6-3.6,3.6c-2,0-3.6-1.6-3.6-3.6c0-2,1.6-3.6,3.6-3.6C33.6,22,35.2,23.6,35.2,25.5"/>
	</defs>
	<clipPath id="SVGID_6_">
		<use xlink:href="#SVGID_5_"  style="overflow:visible;"/>
	</clipPath>
	<g class="st2">
		<defs>
			<rect id="SVGID_7_" x="-29.5" y="-29.4" width="1220.5" height="4337.1"/>
		</defs>
		<clipPath id="SVGID_8_">
			<use xlink:href="#SVGID_7_"  style="overflow:visible;"/>
		</clipPath>
		<rect x="23.8" y="17.7" class="st3" width="15.6" height="15.6"/>
	</g>
</g>
<g>
	<defs>
		<path id="SVGID_9_" d="M36.7,23c0,1.9-1.5,3.4-3.4,3.4c-1.9,0-3.4-1.5-3.4-3.4s1.5-3.4,3.4-3.4C35.2,19.6,36.7,21.1,36.7,23"/>
	</defs>
	<clipPath id="SVGID_10_">
		<use xlink:href="#SVGID_9_"  style="overflow:visible;"/>
	</clipPath>
	<g class="st4">
		<defs>
			<rect id="SVGID_11_" x="-29.5" y="-29.4" width="1220.5" height="4337.1"/>
		</defs>
		<clipPath id="SVGID_12_">
			<use xlink:href="#SVGID_11_"  style="overflow:visible;"/>
		</clipPath>
		<rect x="25.7" y="15.4" class="st5" width="15.3" height="15.3"/>
	</g>
</g>
<g>
	<defs>
		<path id="SVGID_13_" d="M25.7,37.5C25.7,37.5,25.7,37.5,25.7,37.5l-6-2c0,0,0,0,0,0l-4.4-5c0,0,0-0.1,0-0.1l2.9-5.6c0,0,0,0,0,0
			l3.6-3.9c0,0,0.1,0,0.1,0l6.8,2.2c0,0,0,0,0,0l2.5,2.3c0,0,0,0,0,0l2.3,2.7c0,0,0,0.1,0,0.1l-3.6,7.3c0,0,0,0-0.1,0L25.7,37.5
			C25.7,37.5,25.7,37.5,25.7,37.5z M19.7,35.3l5.9,2l4-1.8l3.6-7.2L31,25.6l-2.5-2.3L21.8,21l-3.5,3.8l-2.9,5.5L19.7,35.3z"/>
	</defs>
	<clipPath id="SVGID_14_">
		<use xlink:href="#SVGID_13_"  style="overflow:visible;"/>
	</clipPath>
	<g class="st6">
		<defs>
			<rect id="SVGID_15_" x="-29.5" y="-29.4" width="1220.5" height="4337.1"/>
		</defs>
		<clipPath id="SVGID_16_">
			<use xlink:href="#SVGID_15_"  style="overflow:visible;"/>
		</clipPath>
		<rect x="10.9" y="16.6" class="st7" width="26.8" height="25.1"/>
	</g>
</g>
<g>
	<defs>
		<path id="SVGID_17_" d="M29,30.4l-5.8-1.9c0,0,0,0,0,0L19.6,24l0.2-0.1l3.5,4.4l5.8,1.9L29,30.4z"/>
	</defs>
	<clipPath id="SVGID_18_">
		<use xlink:href="#SVGID_17_"  style="overflow:visible;"/>
	</clipPath>
	<g class="st8">
		<defs>
			<rect id="SVGID_19_" x="-29.5" y="-29.4" width="1220.5" height="4337.1"/>
		</defs>
		<clipPath id="SVGID_20_">
			<use xlink:href="#SVGID_19_"  style="overflow:visible;"/>
		</clipPath>
		<rect x="15.4" y="19.6" class="st9" width="18" height="15"/>
	</g>
</g>
<g>
	<defs>
		<path id="SVGID_21_" d="M29.8,35.6C29.7,35.6,29.7,35.6,29.8,35.6l-5.8-2.1l-4.2,2c0,0-0.1,0-0.1,0c0,0,0-0.1,0-0.1l2.2-4.3
			l-2.2-2.6c0,0,0-0.1,0-0.1c0,0,0.1-0.1,0.1,0l2.9,1.1l2-3.9l-5-1.7l0.1-0.2l5.1,1.7c0,0,0.1,0,0.1,0.1c0,0,0,0.1,0,0.1l-2,3.9
			l2.5,0.9l3.4-6.7l0.2,0.1l-3.4,6.7l4.3,5C29.9,35.5,29.9,35.5,29.8,35.6C29.8,35.6,29.8,35.6,29.8,35.6z M24.1,33.3l5.4,2l-4-4.6
			L24.1,33.3z M21.9,31.2l-2,3.9l3.8-1.8L21.9,31.2z M22,31l1.9,2.2l1.3-2.7l-2.5-0.9L22,31z M20,28.6l1.9,2.2l0.7-1.3L20,28.6z"/>
	</defs>
	<clipPath id="SVGID_22_">
		<use xlink:href="#SVGID_21_"  style="overflow:visible;"/>
	</clipPath>
	<g class="st10">
		<defs>
			<rect id="SVGID_23_" x="-29.5" y="-29.4" width="1220.5" height="4337.1"/>
		</defs>
		<clipPath id="SVGID_24_">
			<use xlink:href="#SVGID_23_"  style="overflow:visible;"/>
		</clipPath>
		<rect x="15.3" y="19.4" class="st11" width="18.8" height="20.5"/>
	</g>
</g>
<g>
	<defs>
		<path id="SVGID_25_" d="M25.7,37.5C25.7,37.5,25.6,37.4,25.7,37.5l-4.6-4.9l-5.8-2.1c0,0-0.1-0.1-0.1-0.1c0,0,0-0.1,0.1-0.1l4.4-2
			l3.2-6.8l0.2,0.1l-3.2,6.9c0,0,0,0-0.1,0.1l-4.2,1.9l5.6,2c0,0,0,0,0,0l4.4,4.8l3.3-6.9c0,0,0,0,0,0l4-2l-5.6-1.8l-4.2,2.1
			l-0.1-0.2l4.2-2.1c0,0,0.1,0,0.1,0l5.9,1.9c0,0,0.1,0,0.1,0.1c0,0,0,0.1-0.1,0.1l-4.2,2.1L25.7,37.5
			C25.8,37.4,25.7,37.4,25.7,37.5C25.7,37.5,25.7,37.5,25.7,37.5"/>
	</defs>
	<clipPath id="SVGID_26_">
		<use xlink:href="#SVGID_25_"  style="overflow:visible;"/>
	</clipPath>
	<g class="st12">
		<defs>
			<rect id="SVGID_27_" x="-29.5" y="-29.4" width="1220.5" height="4337.1"/>
		</defs>
		<clipPath id="SVGID_28_">
			<use xlink:href="#SVGID_27_"  style="overflow:visible;"/>
		</clipPath>
		<rect x="10.9" y="17.2" class="st13" width="26.8" height="24.4"/>
	</g>
</g>
<g>
	<defs>
		
			<rect id="SVGID_29_" x="25.2" y="20.6" transform="matrix(0.7555 -0.6552 0.6552 0.7555 -9.4246 22.4324)" width="0.2" height="6.5"/>
	</defs>
	<clipPath id="SVGID_30_">
		<use xlink:href="#SVGID_29_"  style="overflow:visible;"/>
	</clipPath>
	<g class="st14">
		<defs>
			<rect id="SVGID_31_" x="-29.5" y="-29.4" width="1220.5" height="4337.1"/>
		</defs>
		<clipPath id="SVGID_32_">
			<use xlink:href="#SVGID_31_"  style="overflow:visible;"/>
		</clipPath>
		<rect x="18.9" y="17.1" class="st15" width="12.9" height="13.5"/>
	</g>
</g>
<g>
	<defs>
		
			<rect id="SVGID_33_" x="24.6" y="24.4" transform="matrix(0.9231 -0.3846 0.3846 0.9231 -7.369 12.2377)" width="4.7" height="0.2"/>
	</defs>
	<clipPath id="SVGID_34_">
		<use xlink:href="#SVGID_33_"  style="overflow:visible;"/>
	</clipPath>
	<g class="st16">
		<defs>
			<rect id="SVGID_35_" x="-29.5" y="-29.4" width="1220.5" height="4337.1"/>
		</defs>
		<clipPath id="SVGID_36_">
			<use xlink:href="#SVGID_35_"  style="overflow:visible;"/>
		</clipPath>
		<rect x="20.5" y="19.3" class="st17" width="12.9" height="10.5"/>
	</g>
</g>
<g>
	<defs>
		<path id="SVGID_37_" d="M23.5,47.9c0-1,0.2-4,1.2-7.7c0.8-2.7,1.8-5.4,3.1-8.1c1.7-3.3,3.8-6.6,6.2-9.6c3.3-4,4.1-5.3,5.3-7.2
			l0.3,0.2c-1.2,2-2,3.2-5.3,7.3c-2.5,3-4.5,6.3-6.2,9.6c-1.3,2.6-2.4,5.4-3.1,8.1c-1.3,4.6-1.2,7.6-1.2,7.6L23.5,47.9z"/>
	</defs>
	<clipPath id="SVGID_38_">
		<use xlink:href="#SVGID_37_"  style="overflow:visible;"/>
	</clipPath>
	<g class="st18">
		<defs>
			<rect id="SVGID_39_" x="-29.5" y="-29.4" width="1220.5" height="4337.1"/>
		</defs>
		<clipPath id="SVGID_40_">
			<use xlink:href="#SVGID_39_"  style="overflow:visible;"/>
		</clipPath>
		<rect x="19.3" y="11" class="st19" width="24.7" height="41.1"/>
	</g>
</g>
<g>
	<defs>
		<path id="SVGID_41_" d="M56.7,26c0,0.6,0,1.2,0,1.8c0,0.6,0,1.2,0,1.8c0,0.9-0.2,1.7-0.6,2.4c-0.3,0.7-0.8,1.3-1.4,1.7
			c-0.6,0.5-1.3,0.8-2.1,1c-0.8,0.2-1.7,0.3-2.7,0.3c-1,0-1.9-0.1-2.7-0.3c-0.8-0.2-1.5-0.6-2.1-1s-1.1-1-1.4-1.7
			c-0.3-0.7-0.5-1.5-0.6-2.4c0-0.6,0-1.2,0-1.8c0-0.6,0-1.2,0-1.8c0-0.9,0.2-1.7,0.6-2.4c0.3-0.7,0.8-1.3,1.4-1.8
			c0.6-0.5,1.3-0.8,2.1-1.1c0.8-0.2,1.7-0.4,2.7-0.4c1,0,1.9,0.1,2.7,0.4c0.8,0.2,1.5,0.6,2.1,1.1c0.6,0.5,1.1,1.1,1.4,1.8
			C56.5,24.3,56.7,25.1,56.7,26 M48.4,29.5c0,0.6,0.2,1,0.4,1.3c0.3,0.3,0.6,0.4,1.1,0.4s0.8-0.1,1.1-0.4c0.3-0.3,0.4-0.7,0.4-1.3
			c0-1.2,0-2.3,0-3.4c0-0.6-0.2-1-0.5-1.3c-0.3-0.3-0.6-0.4-1.1-0.4s-0.8,0.1-1.1,0.4c-0.3,0.3-0.4,0.7-0.5,1.3
			C48.3,27.2,48.3,28.3,48.4,29.5"/>
	</defs>
	<clipPath id="SVGID_42_">
		<use xlink:href="#SVGID_41_"  style="overflow:visible;"/>
	</clipPath>
	<g class="st20">
		<defs>
			<rect id="SVGID_43_" x="-29.5" y="-29.4" width="1220.5" height="4337.1"/>
		</defs>
		<clipPath id="SVGID_44_">
			<use xlink:href="#SVGID_43_"  style="overflow:visible;"/>
		</clipPath>
		<rect x="38.8" y="16.1" class="st21" width="22.2" height="23.2"/>
	</g>
</g>
<g>
	<defs>
		<path id="SVGID_45_" d="M65.1,20.6c1,0,1.8,0.1,2.7,0.4c0.8,0.2,1.5,0.6,2.1,1.1c0.6,0.5,1.1,1.1,1.4,1.8s0.6,1.5,0.6,2.4
			c0,0.3,0,0.6,0,0.8v0.7v0.7c0,0.2,0,0.5,0,0.8c0,1-0.2,1.8-0.6,2.5c-0.3,0.7-0.8,1.3-1.4,1.8c-0.6,0.5-1.3,0.8-2.1,1
			c-0.8,0.2-1.7,0.3-2.7,0.3h-6c-0.2,0-0.3-0.1-0.4-0.2c-0.1-0.1-0.2-0.2-0.2-0.4V21.1c0-0.2,0.1-0.3,0.2-0.4
			c0.1-0.1,0.2-0.2,0.4-0.2H65.1z M66.7,26.2c0-0.6-0.2-1-0.5-1.3s-0.7-0.4-1.2-0.4h-1.2v6.4h1.3c0.5,0,0.8-0.1,1.1-0.4
			c0.3-0.3,0.5-0.7,0.5-1.3c0-0.3,0-0.6,0-0.8c0-0.3,0-0.5,0-0.7c0-0.2,0-0.5,0-0.7C66.7,26.8,66.7,26.5,66.7,26.2z"/>
	</defs>
	<clipPath id="SVGID_46_">
		<use xlink:href="#SVGID_45_"  style="overflow:visible;"/>
	</clipPath>
	<g class="st22">
		<defs>
			<rect id="SVGID_47_" x="-29.5" y="-29.4" width="1220.5" height="4337.1"/>
		</defs>
		<clipPath id="SVGID_48_">
			<use xlink:href="#SVGID_47_"  style="overflow:visible;"/>
		</clipPath>
		<rect x="54.4" y="16.3" class="st23" width="21.8" height="22.8"/>
	</g>
</g>
<g>
	<defs>
		<path id="SVGID_49_" d="M80.2,20.6c1,0,1.8,0.1,2.7,0.4c0.8,0.2,1.5,0.6,2.1,1.1c0.6,0.5,1.1,1.1,1.4,1.8c0.4,0.7,0.6,1.5,0.6,2.4
			c0,0.3,0,0.6,0,0.8v0.7v0.7c0,0.2,0,0.5,0,0.8c0,1-0.2,1.8-0.6,2.5c-0.3,0.7-0.8,1.3-1.4,1.8c-0.6,0.5-1.3,0.8-2.1,1
			c-0.8,0.2-1.7,0.3-2.7,0.3h-6c-0.2,0-0.3-0.1-0.4-0.2c-0.1-0.1-0.2-0.2-0.2-0.4V21.1c0-0.2,0.1-0.3,0.2-0.4
			c0.1-0.1,0.2-0.2,0.4-0.2H80.2z M81.9,26.2c0-0.6-0.2-1-0.5-1.3c-0.3-0.3-0.7-0.4-1.2-0.4h-1.2v6.4h1.3c0.5,0,0.8-0.1,1.1-0.4
			c0.3-0.3,0.5-0.7,0.5-1.3c0-0.3,0-0.6,0-0.8c0-0.3,0-0.5,0-0.7c0-0.2,0-0.5,0-0.7C81.9,26.8,81.9,26.5,81.9,26.2z"/>
	</defs>
	<clipPath id="SVGID_50_">
		<use xlink:href="#SVGID_49_"  style="overflow:visible;"/>
	</clipPath>
	<g class="st24">
		<defs>
			<rect id="SVGID_51_" x="-29.5" y="-29.4" width="1220.5" height="4337.1"/>
		</defs>
		<clipPath id="SVGID_52_">
			<use xlink:href="#SVGID_51_"  style="overflow:visible;"/>
		</clipPath>
		<rect x="69.5" y="16.3" class="st25" width="21.8" height="22.8"/>
	</g>
</g>
<g>
	<defs>
		<path id="SVGID_53_" d="M97.2,20.4c1,0,1.9,0.1,2.7,0.4c0.8,0.3,1.5,0.6,2,1c0.5,0.4,1,0.9,1.3,1.4c0.3,0.5,0.4,1,0.5,1.4
			c0,0.1,0,0.2-0.1,0.3c-0.1,0.1-0.2,0.1-0.3,0.1h-4.1c-0.2,0-0.3,0-0.5-0.1c-0.1-0.1-0.2-0.1-0.4-0.2c-0.1-0.1-0.2-0.1-0.4-0.2
			c-0.2-0.1-0.4-0.1-0.7-0.1c-0.4,0-0.6,0.1-0.8,0.2c-0.2,0.1-0.2,0.2-0.2,0.4c0,0.1,0,0.2,0.1,0.3s0.2,0.2,0.3,0.2
			c0.2,0.1,0.4,0.1,0.7,0.2c0.3,0.1,0.7,0.1,1.1,0.2c1,0.1,1.9,0.3,2.6,0.5c0.7,0.2,1.3,0.5,1.8,0.9c0.5,0.4,0.8,0.8,1,1.3
			c0.2,0.5,0.3,1.1,0.3,1.8c0,0.8-0.2,1.4-0.5,2c-0.3,0.6-0.8,1.1-1.4,1.5c-0.6,0.4-1.3,0.7-2.2,1c-0.8,0.2-1.7,0.3-2.7,0.3
			c-1.1,0-2.1-0.1-3-0.4c-0.8-0.2-1.5-0.6-2.1-1c-0.6-0.4-1-0.9-1.3-1.4c-0.3-0.5-0.4-1.1-0.4-1.6c0-0.1,0-0.2,0.1-0.3
			c0.1-0.1,0.2-0.1,0.3-0.1H95c0.2,0,0.4,0,0.5,0.1c0.1,0.1,0.2,0.1,0.4,0.3c0.2,0.2,0.4,0.3,0.6,0.3c0.2,0.1,0.5,0.1,0.9,0.1
			c0.5,0,0.8,0,1.1-0.1c0.3-0.1,0.4-0.2,0.4-0.4c0-0.2-0.2-0.4-0.6-0.6c-0.4-0.1-1.1-0.3-2.1-0.4c-0.8-0.1-1.5-0.3-2.2-0.5
			c-0.7-0.2-1.2-0.5-1.7-0.9c-0.5-0.4-0.8-0.8-1.1-1.3c-0.2-0.5-0.4-1.1-0.4-1.8c0-0.7,0.2-1.3,0.5-1.9c0.3-0.6,0.7-1.1,1.3-1.5
			c0.5-0.4,1.2-0.7,2-1C95.5,20.5,96.3,20.4,97.2,20.4"/>
	</defs>
	<clipPath id="SVGID_54_">
		<use xlink:href="#SVGID_53_"  style="overflow:visible;"/>
	</clipPath>
	<g class="st26">
		<defs>
			<rect id="SVGID_55_" x="-29.5" y="-29.4" width="1220.5" height="4337.1"/>
		</defs>
		<clipPath id="SVGID_56_">
			<use xlink:href="#SVGID_55_"  style="overflow:visible;"/>
		</clipPath>
		<rect x="86.4" y="16.1" class="st27" width="22" height="23.2"/>
	</g>
</g>
<g>
	<defs>
		<path id="SVGID_57_" d="M110.7,26c0,1.1,0,2.3,0,3.4c0,0.6,0.2,1.1,0.4,1.3c0.3,0.2,0.6,0.4,1.1,0.4c0.4,0,0.7-0.1,0.9-0.2
			c0.3-0.2,0.5-0.5,0.6-0.9c0.1-0.2,0.2-0.4,0.3-0.5c0.1-0.1,0.3-0.1,0.5-0.1h4.2c0.1,0,0.2,0,0.3,0.1c0.1,0.1,0.1,0.2,0.1,0.3
			c0,0.9-0.2,1.7-0.6,2.4c-0.4,0.7-0.9,1.2-1.6,1.6c-0.6,0.4-1.4,0.7-2.2,0.9c-0.8,0.2-1.7,0.3-2.5,0.3c-1,0-1.9-0.1-2.7-0.3
			s-1.5-0.5-2.1-1c-0.6-0.5-1.1-1-1.4-1.7c-0.3-0.7-0.5-1.5-0.6-2.5c0-0.6,0-1.2,0-1.8c0-0.6,0-1.3,0-1.8c0-1,0.2-1.8,0.6-2.5
			c0.4-0.7,0.8-1.3,1.5-1.7c0.6-0.5,1.3-0.8,2.1-1c0.8-0.2,1.7-0.3,2.7-0.3c0.9,0,1.7,0.1,2.5,0.3c0.8,0.2,1.6,0.5,2.2,0.9
			c0.6,0.4,1.2,1,1.6,1.6c0.4,0.7,0.6,1.5,0.6,2.4c0,0.1,0,0.2-0.1,0.3c-0.1,0.1-0.2,0.1-0.3,0.1h-4.2c-0.2,0-0.4,0-0.5-0.1
			c-0.1-0.1-0.2-0.2-0.3-0.5c-0.2-0.4-0.4-0.7-0.6-0.9c-0.3-0.2-0.6-0.2-0.9-0.2c-0.5,0-0.8,0.1-1.1,0.4
			C110.8,25,110.7,25.4,110.7,26"/>
	</defs>
	<clipPath id="SVGID_58_">
		<use xlink:href="#SVGID_57_"  style="overflow:visible;"/>
	</clipPath>
	<g class="st28">
		<defs>
			<rect id="SVGID_59_" x="-29.5" y="-29.4" width="1220.5" height="4337.1"/>
		</defs>
		<clipPath id="SVGID_60_">
			<use xlink:href="#SVGID_59_"  style="overflow:visible;"/>
		</clipPath>
		<rect x="101" y="16.1" class="st29" width="22.3" height="23.2"/>
	</g>
</g>
<g>
	<defs>
		<path id="SVGID_61_" d="M131.9,30.9c0.2,0,0.3,0.1,0.4,0.2c0.1,0.1,0.2,0.2,0.2,0.4v2.9c0,0.2-0.1,0.3-0.2,0.4
			c-0.1,0.1-0.2,0.2-0.4,0.2h-10.7c-0.2,0-0.3-0.1-0.4-0.2c-0.1-0.1-0.2-0.2-0.2-0.4V21.1c0-0.1,0.1-0.3,0.2-0.4
			c0.1-0.1,0.2-0.2,0.4-0.2h10.5c0.1,0,0.3,0.1,0.4,0.2c0.1,0.1,0.2,0.2,0.2,0.4V24c0,0.2-0.1,0.3-0.2,0.4c-0.1,0.1-0.2,0.2-0.4,0.2
			h-6.1v1.3h5.7c0.2,0,0.3,0.1,0.4,0.2c0.1,0.1,0.2,0.2,0.2,0.4v2.7c0,0.2-0.1,0.3-0.2,0.4c-0.1,0.1-0.2,0.2-0.4,0.2h-5.7v1.3H131.9
			z"/>
	</defs>
	<clipPath id="SVGID_62_">
		<use xlink:href="#SVGID_61_"  style="overflow:visible;"/>
	</clipPath>
	<g class="st30">
		<defs>
			<rect id="SVGID_63_" x="-29.5" y="-29.4" width="1220.5" height="4337.1"/>
		</defs>
		<clipPath id="SVGID_64_">
			<use xlink:href="#SVGID_63_"  style="overflow:visible;"/>
		</clipPath>
		<rect x="116.5" y="16.3" class="st31" width="20.3" height="22.8"/>
	</g>
</g>
<g>
	<defs>
		<path id="SVGID_65_" d="M146.7,20.6c0.2,0,0.3,0.1,0.4,0.2c0.1,0.1,0.2,0.2,0.2,0.4v13.2c0,0.2-0.1,0.3-0.2,0.4
			c-0.1,0.1-0.2,0.2-0.4,0.2h-3.2c-0.3,0-0.5-0.1-0.6-0.2c-0.1-0.1-0.2-0.2-0.2-0.3l-3.5-5.2v5.1c0,0.2-0.1,0.3-0.2,0.4
			c-0.1,0.1-0.2,0.2-0.4,0.2h-3.7c-0.2,0-0.3-0.1-0.4-0.2c-0.1-0.1-0.2-0.2-0.2-0.4V21.1c0-0.1,0.1-0.3,0.2-0.4
			c0.1-0.1,0.2-0.2,0.4-0.2h3.2c0.3,0,0.5,0.1,0.6,0.2c0.1,0.1,0.2,0.2,0.2,0.3l3.5,5.7v-5.6c0-0.1,0.1-0.3,0.2-0.4
			c0.1-0.1,0.2-0.2,0.4-0.2H146.7z"/>
	</defs>
	<clipPath id="SVGID_66_">
		<use xlink:href="#SVGID_65_"  style="overflow:visible;"/>
	</clipPath>
	<g class="st32">
		<defs>
			<rect id="SVGID_67_" x="-29.5" y="-29.4" width="1220.5" height="4337.1"/>
		</defs>
		<clipPath id="SVGID_68_">
			<use xlink:href="#SVGID_67_"  style="overflow:visible;"/>
		</clipPath>
		<rect x="130.1" y="16.3" class="st33" width="21.4" height="22.8"/>
	</g>
</g>
<g>
	<defs>
		<path id="SVGID_69_" d="M160.8,30.9c0.2,0,0.3,0.1,0.4,0.2c0.1,0.1,0.2,0.2,0.2,0.4v2.9c0,0.2-0.1,0.3-0.2,0.4
			c-0.1,0.1-0.2,0.2-0.4,0.2h-10.7c-0.2,0-0.3-0.1-0.4-0.2c-0.1-0.1-0.2-0.2-0.2-0.4V21.1c0-0.1,0.1-0.3,0.2-0.4
			c0.1-0.1,0.2-0.2,0.4-0.2h10.5c0.1,0,0.3,0.1,0.4,0.2c0.1,0.1,0.2,0.2,0.2,0.4V24c0,0.2-0.1,0.3-0.2,0.4c-0.1,0.1-0.2,0.2-0.4,0.2
			h-6.1v1.3h5.7c0.2,0,0.3,0.1,0.4,0.2c0.1,0.1,0.2,0.2,0.2,0.4v2.7c0,0.2-0.1,0.3-0.2,0.4c-0.1,0.1-0.2,0.2-0.4,0.2h-5.7v1.3H160.8
			z"/>
	</defs>
	<clipPath id="SVGID_70_">
		<use xlink:href="#SVGID_69_"  style="overflow:visible;"/>
	</clipPath>
	<g class="st34">
		<defs>
			<rect id="SVGID_71_" x="-29.5" y="-29.4" width="1220.5" height="4337.1"/>
		</defs>
		<clipPath id="SVGID_72_">
			<use xlink:href="#SVGID_71_"  style="overflow:visible;"/>
		</clipPath>
		<rect x="145.3" y="16.3" class="st35" width="20.3" height="22.8"/>
	</g>
</g>
<g>
	<defs>
		<path id="SVGID_73_" d="M169.1,20.4c1,0,1.9,0.1,2.7,0.4c0.8,0.3,1.5,0.6,2,1c0.5,0.4,1,0.9,1.3,1.4c0.3,0.5,0.4,1,0.5,1.4
			c0,0.1,0,0.2-0.1,0.3c-0.1,0.1-0.2,0.1-0.3,0.1H171c-0.2,0-0.3,0-0.5-0.1c-0.1-0.1-0.2-0.1-0.4-0.2c-0.1-0.1-0.2-0.1-0.4-0.2
			c-0.2-0.1-0.4-0.1-0.7-0.1c-0.4,0-0.6,0.1-0.8,0.2c-0.2,0.1-0.2,0.2-0.2,0.4c0,0.1,0,0.2,0.1,0.3c0.1,0.1,0.2,0.2,0.3,0.2
			c0.2,0.1,0.4,0.1,0.7,0.2c0.3,0.1,0.7,0.1,1.1,0.2c1,0.1,1.9,0.3,2.6,0.5c0.7,0.2,1.3,0.5,1.8,0.9c0.5,0.4,0.8,0.8,1,1.3
			c0.2,0.5,0.3,1.1,0.3,1.8c0,0.8-0.2,1.4-0.5,2c-0.3,0.6-0.8,1.1-1.4,1.5c-0.6,0.4-1.3,0.7-2.2,1c-0.8,0.2-1.7,0.3-2.7,0.3
			c-1.1,0-2.1-0.1-3-0.4c-0.8-0.2-1.5-0.6-2.1-1c-0.6-0.4-1-0.9-1.3-1.4c-0.3-0.5-0.4-1.1-0.4-1.6c0-0.1,0-0.2,0.1-0.3
			c0.1-0.1,0.2-0.1,0.3-0.1h3.9c0.2,0,0.4,0,0.5,0.1c0.1,0.1,0.2,0.1,0.4,0.3c0.2,0.2,0.4,0.3,0.6,0.3c0.2,0.1,0.5,0.1,0.9,0.1
			c0.5,0,0.8,0,1.1-0.1c0.3-0.1,0.4-0.2,0.4-0.4c0-0.2-0.2-0.4-0.6-0.6c-0.4-0.1-1.1-0.3-2.1-0.4c-0.8-0.1-1.5-0.3-2.2-0.5
			c-0.7-0.2-1.2-0.5-1.7-0.9c-0.5-0.4-0.8-0.8-1.1-1.3c-0.2-0.5-0.4-1.1-0.4-1.8c0-0.7,0.2-1.3,0.5-1.9c0.3-0.6,0.7-1.1,1.3-1.5
			c0.5-0.4,1.2-0.7,2-1C167.3,20.5,168.1,20.4,169.1,20.4"/>
	</defs>
	<clipPath id="SVGID_74_">
		<use xlink:href="#SVGID_73_"  style="overflow:visible;"/>
	</clipPath>
	<g class="st36">
		<defs>
			<rect id="SVGID_75_" x="-29.5" y="-29.4" width="1220.5" height="4337.1"/>
		</defs>
		<clipPath id="SVGID_76_">
			<use xlink:href="#SVGID_75_"  style="overflow:visible;"/>
		</clipPath>
		<rect x="158.2" y="16.1" class="st37" width="22" height="23.2"/>
	</g>
</g>
<g>
	<defs>
		<path id="SVGID_77_" d="M34.5,32C34.4,32,34.4,32,34.5,32c-3.7-2.6-6.6-6.3-6.6-6.3c-2.4-3.1-4.4-5-5.2-5.6
			c-5.4-3.6-10-5.7-12.9-6.8c-3.2-1.2-5.1-1.6-5.1-1.6c-0.1,0-0.1-0.1-0.1-0.2c0-0.1,0.1-0.1,0.2-0.1c0,0,2,0.4,5.2,1.6
			c3,1.1,7.6,3.2,13,6.8l0,0c0.8,0.6,2.9,2.6,5.3,5.7c0,0,2.9,3.7,6.5,6.2c0.1,0.1,0.1,0.1,0,0.2C34.6,32,34.5,32,34.5,32"/>
	</defs>
	<clipPath id="SVGID_78_">
		<use xlink:href="#SVGID_77_"  style="overflow:visible;"/>
	</clipPath>
	<g class="st38">
		<defs>
			<rect id="SVGID_79_" x="-29.5" y="-29.4" width="1220.5" height="4337.1"/>
		</defs>
		<clipPath id="SVGID_80_">
			<use xlink:href="#SVGID_79_"  style="overflow:visible;"/>
		</clipPath>
		<rect x="0.2" y="7.1" class="st39" width="38.7" height="29.2"/>
	</g>
</g>
<g>
	<defs>
		<path id="SVGID_81_" d="M56.7,26c0,0.6,0,1.2,0,1.8c0,0.6,0,1.2,0,1.8c0,0.9-0.2,1.7-0.6,2.4c-0.3,0.7-0.8,1.3-1.4,1.7
			c-0.6,0.5-1.3,0.8-2.1,1c-0.8,0.2-1.7,0.3-2.7,0.3c-1,0-1.9-0.1-2.7-0.3c-0.8-0.2-1.5-0.6-2.1-1s-1.1-1-1.4-1.7
			c-0.3-0.7-0.5-1.5-0.6-2.4c0-0.6,0-1.2,0-1.8c0-0.6,0-1.2,0-1.8c0-0.9,0.2-1.7,0.6-2.4c0.3-0.7,0.8-1.3,1.4-1.8
			c0.6-0.5,1.3-0.8,2.1-1.1c0.8-0.2,1.7-0.4,2.7-0.4c1,0,1.9,0.1,2.7,0.4c0.8,0.2,1.5,0.6,2.1,1.1c0.6,0.5,1.1,1.1,1.4,1.8
			C56.5,24.3,56.7,25.1,56.7,26 M48.4,29.5c0,0.6,0.2,1,0.4,1.3c0.3,0.3,0.6,0.4,1.1,0.4s0.8-0.1,1.1-0.4c0.3-0.3,0.4-0.7,0.4-1.3
			c0-1.2,0-2.3,0-3.4c0-0.6-0.2-1-0.5-1.3c-0.3-0.3-0.6-0.4-1.1-0.4s-0.8,0.1-1.1,0.4c-0.3,0.3-0.4,0.7-0.5,1.3
			C48.3,27.2,48.3,28.3,48.4,29.5"/>
	</defs>
	<clipPath id="SVGID_82_">
		<use xlink:href="#SVGID_81_"  style="overflow:visible;"/>
	</clipPath>
	<g class="st40">
		<defs>
			<rect id="SVGID_83_" x="-29.5" y="-29.4" width="1220.5" height="4337.1"/>
		</defs>
		<clipPath id="SVGID_84_">
			<use xlink:href="#SVGID_83_"  style="overflow:visible;"/>
		</clipPath>
		<rect x="38.8" y="16.1" class="st41" width="22.2" height="23.2"/>
	</g>
</g>
<g>
	<defs>
		<path id="SVGID_85_" d="M65.1,20.6c1,0,1.8,0.1,2.7,0.4c0.8,0.2,1.5,0.6,2.1,1.1c0.6,0.5,1.1,1.1,1.4,1.8s0.6,1.5,0.6,2.4
			c0,0.3,0,0.6,0,0.8v0.7v0.7c0,0.2,0,0.5,0,0.8c0,1-0.2,1.8-0.6,2.5c-0.3,0.7-0.8,1.3-1.4,1.8c-0.6,0.5-1.3,0.8-2.1,1
			c-0.8,0.2-1.7,0.3-2.7,0.3h-6c-0.2,0-0.3-0.1-0.4-0.2c-0.1-0.1-0.2-0.2-0.2-0.4V21.1c0-0.2,0.1-0.3,0.2-0.4
			c0.1-0.1,0.2-0.2,0.4-0.2H65.1z M66.7,26.2c0-0.6-0.2-1-0.5-1.3s-0.7-0.4-1.2-0.4h-1.2v6.4h1.3c0.5,0,0.8-0.1,1.1-0.4
			c0.3-0.3,0.5-0.7,0.5-1.3c0-0.3,0-0.6,0-0.8c0-0.3,0-0.5,0-0.7c0-0.2,0-0.5,0-0.7C66.7,26.8,66.7,26.5,66.7,26.2z"/>
	</defs>
	<clipPath id="SVGID_86_">
		<use xlink:href="#SVGID_85_"  style="overflow:visible;"/>
	</clipPath>
	<g class="st42">
		<defs>
			<rect id="SVGID_87_" x="-29.5" y="-29.4" width="1220.5" height="4337.1"/>
		</defs>
		<clipPath id="SVGID_88_">
			<use xlink:href="#SVGID_87_"  style="overflow:visible;"/>
		</clipPath>
		<rect x="54.4" y="16.3" class="st43" width="21.8" height="22.8"/>
	</g>
</g>
<g>
	<defs>
		<path id="SVGID_89_" d="M80.2,20.6c1,0,1.8,0.1,2.7,0.4c0.8,0.2,1.5,0.6,2.1,1.1c0.6,0.5,1.1,1.1,1.4,1.8c0.4,0.7,0.6,1.5,0.6,2.4
			c0,0.3,0,0.6,0,0.8v0.7v0.7c0,0.2,0,0.5,0,0.8c0,1-0.2,1.8-0.6,2.5c-0.3,0.7-0.8,1.3-1.4,1.8c-0.6,0.5-1.3,0.8-2.1,1
			c-0.8,0.2-1.7,0.3-2.7,0.3h-6c-0.2,0-0.3-0.1-0.4-0.2c-0.1-0.1-0.2-0.2-0.2-0.4V21.1c0-0.2,0.1-0.3,0.2-0.4
			c0.1-0.1,0.2-0.2,0.4-0.2H80.2z M81.9,26.2c0-0.6-0.2-1-0.5-1.3c-0.3-0.3-0.7-0.4-1.2-0.4h-1.2v6.4h1.3c0.5,0,0.8-0.1,1.1-0.4
			c0.3-0.3,0.5-0.7,0.5-1.3c0-0.3,0-0.6,0-0.8c0-0.3,0-0.5,0-0.7c0-0.2,0-0.5,0-0.7C81.9,26.8,81.9,26.5,81.9,26.2z"/>
	</defs>
	<clipPath id="SVGID_90_">
		<use xlink:href="#SVGID_89_"  style="overflow:visible;"/>
	</clipPath>
	<g class="st44">
		<defs>
			<rect id="SVGID_91_" x="-29.5" y="-29.4" width="1220.5" height="4337.1"/>
		</defs>
		<clipPath id="SVGID_92_">
			<use xlink:href="#SVGID_91_"  style="overflow:visible;"/>
		</clipPath>
		<rect x="69.5" y="16.3" class="st45" width="21.8" height="22.8"/>
	</g>
</g>
<g>
	<defs>
		<path id="SVGID_93_" d="M97.2,20.4c1,0,1.9,0.1,2.7,0.4c0.8,0.3,1.5,0.6,2,1c0.5,0.4,1,0.9,1.3,1.4c0.3,0.5,0.4,1,0.5,1.4
			c0,0.1,0,0.2-0.1,0.3c-0.1,0.1-0.2,0.1-0.3,0.1h-4.1c-0.2,0-0.3,0-0.5-0.1c-0.1-0.1-0.2-0.1-0.4-0.2c-0.1-0.1-0.2-0.1-0.4-0.2
			c-0.2-0.1-0.4-0.1-0.7-0.1c-0.4,0-0.6,0.1-0.8,0.2c-0.2,0.1-0.2,0.2-0.2,0.4c0,0.1,0,0.2,0.1,0.3s0.2,0.2,0.3,0.2
			c0.2,0.1,0.4,0.1,0.7,0.2c0.3,0.1,0.7,0.1,1.1,0.2c1,0.1,1.9,0.3,2.6,0.5c0.7,0.2,1.3,0.5,1.8,0.9c0.5,0.4,0.8,0.8,1,1.3
			c0.2,0.5,0.3,1.1,0.3,1.8c0,0.8-0.2,1.4-0.5,2c-0.3,0.6-0.8,1.1-1.4,1.5c-0.6,0.4-1.3,0.7-2.2,1c-0.8,0.2-1.7,0.3-2.7,0.3
			c-1.1,0-2.1-0.1-3-0.4c-0.8-0.2-1.5-0.6-2.1-1c-0.6-0.4-1-0.9-1.3-1.4c-0.3-0.5-0.4-1.1-0.4-1.6c0-0.1,0-0.2,0.1-0.3
			c0.1-0.1,0.2-0.1,0.3-0.1H95c0.2,0,0.4,0,0.5,0.1c0.1,0.1,0.2,0.1,0.4,0.3c0.2,0.2,0.4,0.3,0.6,0.3c0.2,0.1,0.5,0.1,0.9,0.1
			c0.5,0,0.8,0,1.1-0.1c0.3-0.1,0.4-0.2,0.4-0.4c0-0.2-0.2-0.4-0.6-0.6c-0.4-0.1-1.1-0.3-2.1-0.4c-0.8-0.1-1.5-0.3-2.2-0.5
			c-0.7-0.2-1.2-0.5-1.7-0.9c-0.5-0.4-0.8-0.8-1.1-1.3c-0.2-0.5-0.4-1.1-0.4-1.8c0-0.7,0.2-1.3,0.5-1.9c0.3-0.6,0.7-1.1,1.3-1.5
			c0.5-0.4,1.2-0.7,2-1C95.5,20.5,96.3,20.4,97.2,20.4"/>
	</defs>
	<clipPath id="SVGID_94_">
		<use xlink:href="#SVGID_93_"  style="overflow:visible;"/>
	</clipPath>
	<g class="st46">
		<defs>
			<rect id="SVGID_95_" x="-29.5" y="-29.4" width="1220.5" height="4337.1"/>
		</defs>
		<clipPath id="SVGID_96_">
			<use xlink:href="#SVGID_95_"  style="overflow:visible;"/>
		</clipPath>
		<rect x="86.4" y="16.1" class="st47" width="22" height="23.2"/>
	</g>
</g>
<g>
	<defs>
		<path id="SVGID_97_" d="M110.7,26c0,1.1,0,2.3,0,3.4c0,0.6,0.2,1.1,0.4,1.3c0.3,0.2,0.6,0.4,1.1,0.4c0.4,0,0.7-0.1,0.9-0.2
			c0.3-0.2,0.5-0.5,0.6-0.9c0.1-0.2,0.2-0.4,0.3-0.5c0.1-0.1,0.3-0.1,0.5-0.1h4.2c0.1,0,0.2,0,0.3,0.1c0.1,0.1,0.1,0.2,0.1,0.3
			c0,0.9-0.2,1.7-0.6,2.4c-0.4,0.7-0.9,1.2-1.6,1.6c-0.6,0.4-1.4,0.7-2.2,0.9c-0.8,0.2-1.7,0.3-2.5,0.3c-1,0-1.9-0.1-2.7-0.3
			s-1.5-0.5-2.1-1c-0.6-0.5-1.1-1-1.4-1.7c-0.3-0.7-0.5-1.5-0.6-2.5c0-0.6,0-1.2,0-1.8c0-0.6,0-1.3,0-1.8c0-1,0.2-1.8,0.6-2.5
			c0.4-0.7,0.8-1.3,1.5-1.7c0.6-0.5,1.3-0.8,2.1-1c0.8-0.2,1.7-0.3,2.7-0.3c0.9,0,1.7,0.1,2.5,0.3c0.8,0.2,1.6,0.5,2.2,0.9
			c0.6,0.4,1.2,1,1.6,1.6c0.4,0.7,0.6,1.5,0.6,2.4c0,0.1,0,0.2-0.1,0.3c-0.1,0.1-0.2,0.1-0.3,0.1h-4.2c-0.2,0-0.4,0-0.5-0.1
			c-0.1-0.1-0.2-0.2-0.3-0.5c-0.2-0.4-0.4-0.7-0.6-0.9c-0.3-0.2-0.6-0.2-0.9-0.2c-0.5,0-0.8,0.1-1.1,0.4
			C110.8,25,110.7,25.4,110.7,26"/>
	</defs>
	<clipPath id="SVGID_98_">
		<use xlink:href="#SVGID_97_"  style="overflow:visible;"/>
	</clipPath>
	<g class="st48">
		<defs>
			<rect id="SVGID_99_" x="-29.5" y="-29.4" width="1220.5" height="4337.1"/>
		</defs>
		<clipPath id="SVGID_100_">
			<use xlink:href="#SVGID_99_"  style="overflow:visible;"/>
		</clipPath>
		<rect x="101" y="16.1" class="st49" width="22.3" height="23.2"/>
	</g>
</g>
<g>
	<defs>
		<path id="SVGID_101_" d="M131.9,30.9c0.2,0,0.3,0.1,0.4,0.2c0.1,0.1,0.2,0.2,0.2,0.4v2.9c0,0.2-0.1,0.3-0.2,0.4
			c-0.1,0.1-0.2,0.2-0.4,0.2h-10.7c-0.2,0-0.3-0.1-0.4-0.2c-0.1-0.1-0.2-0.2-0.2-0.4V21.1c0-0.1,0.1-0.3,0.2-0.4
			c0.1-0.1,0.2-0.2,0.4-0.2h10.5c0.1,0,0.3,0.1,0.4,0.2c0.1,0.1,0.2,0.2,0.2,0.4V24c0,0.2-0.1,0.3-0.2,0.4c-0.1,0.1-0.2,0.2-0.4,0.2
			h-6.1v1.3h5.7c0.2,0,0.3,0.1,0.4,0.2c0.1,0.1,0.2,0.2,0.2,0.4v2.7c0,0.2-0.1,0.3-0.2,0.4c-0.1,0.1-0.2,0.2-0.4,0.2h-5.7v1.3H131.9
			z"/>
	</defs>
	<clipPath id="SVGID_102_">
		<use xlink:href="#SVGID_101_"  style="overflow:visible;"/>
	</clipPath>
	<g class="st50">
		<defs>
			<rect id="SVGID_103_" x="-29.5" y="-29.4" width="1220.5" height="4337.1"/>
		</defs>
		<clipPath id="SVGID_104_">
			<use xlink:href="#SVGID_103_"  style="overflow:visible;"/>
		</clipPath>
		<rect x="116.5" y="16.3" class="st51" width="20.3" height="22.8"/>
	</g>
</g>
<g>
	<defs>
		<path id="SVGID_105_" d="M146.7,20.6c0.2,0,0.3,0.1,0.4,0.2c0.1,0.1,0.2,0.2,0.2,0.4v13.2c0,0.2-0.1,0.3-0.2,0.4
			c-0.1,0.1-0.2,0.2-0.4,0.2h-3.2c-0.3,0-0.5-0.1-0.6-0.2c-0.1-0.1-0.2-0.2-0.2-0.3l-3.5-5.2v5.1c0,0.2-0.1,0.3-0.2,0.4
			c-0.1,0.1-0.2,0.2-0.4,0.2h-3.7c-0.2,0-0.3-0.1-0.4-0.2c-0.1-0.1-0.2-0.2-0.2-0.4V21.1c0-0.1,0.1-0.3,0.2-0.4
			c0.1-0.1,0.2-0.2,0.4-0.2h3.2c0.3,0,0.5,0.1,0.6,0.2c0.1,0.1,0.2,0.2,0.2,0.3l3.5,5.7v-5.6c0-0.1,0.1-0.3,0.2-0.4
			c0.1-0.1,0.2-0.2,0.4-0.2H146.7z"/>
	</defs>
	<clipPath id="SVGID_106_">
		<use xlink:href="#SVGID_105_"  style="overflow:visible;"/>
	</clipPath>
	<g class="st52">
		<defs>
			<rect id="SVGID_107_" x="-29.5" y="-29.4" width="1220.5" height="4337.1"/>
		</defs>
		<clipPath id="SVGID_108_">
			<use xlink:href="#SVGID_107_"  style="overflow:visible;"/>
		</clipPath>
		<rect x="130.1" y="16.3" class="st53" width="21.4" height="22.8"/>
	</g>
</g>
<g>
	<defs>
		<path id="SVGID_109_" d="M160.8,30.9c0.2,0,0.3,0.1,0.4,0.2c0.1,0.1,0.2,0.2,0.2,0.4v2.9c0,0.2-0.1,0.3-0.2,0.4
			c-0.1,0.1-0.2,0.2-0.4,0.2h-10.7c-0.2,0-0.3-0.1-0.4-0.2c-0.1-0.1-0.2-0.2-0.2-0.4V21.1c0-0.1,0.1-0.3,0.2-0.4
			c0.1-0.1,0.2-0.2,0.4-0.2h10.5c0.1,0,0.3,0.1,0.4,0.2c0.1,0.1,0.2,0.2,0.2,0.4V24c0,0.2-0.1,0.3-0.2,0.4c-0.1,0.1-0.2,0.2-0.4,0.2
			h-6.1v1.3h5.7c0.2,0,0.3,0.1,0.4,0.2c0.1,0.1,0.2,0.2,0.2,0.4v2.7c0,0.2-0.1,0.3-0.2,0.4c-0.1,0.1-0.2,0.2-0.4,0.2h-5.7v1.3H160.8
			z"/>
	</defs>
	<clipPath id="SVGID_110_">
		<use xlink:href="#SVGID_109_"  style="overflow:visible;"/>
	</clipPath>
	<g class="st54">
		<defs>
			<rect id="SVGID_111_" x="-29.5" y="-29.4" width="1220.5" height="4337.1"/>
		</defs>
		<clipPath id="SVGID_112_">
			<use xlink:href="#SVGID_111_"  style="overflow:visible;"/>
		</clipPath>
		<rect x="145.3" y="16.3" class="st55" width="20.3" height="22.8"/>
	</g>
</g>
<g>
	<defs>
		<path id="SVGID_113_" d="M169.1,20.4c1,0,1.9,0.1,2.7,0.4c0.8,0.3,1.5,0.6,2,1c0.5,0.4,1,0.9,1.3,1.4c0.3,0.5,0.4,1,0.5,1.4
			c0,0.1,0,0.2-0.1,0.3c-0.1,0.1-0.2,0.1-0.3,0.1H171c-0.2,0-0.3,0-0.5-0.1c-0.1-0.1-0.2-0.1-0.4-0.2c-0.1-0.1-0.2-0.1-0.4-0.2
			c-0.2-0.1-0.4-0.1-0.7-0.1c-0.4,0-0.6,0.1-0.8,0.2c-0.2,0.1-0.2,0.2-0.2,0.4c0,0.1,0,0.2,0.1,0.3c0.1,0.1,0.2,0.2,0.3,0.2
			c0.2,0.1,0.4,0.1,0.7,0.2c0.3,0.1,0.7,0.1,1.1,0.2c1,0.1,1.9,0.3,2.6,0.5c0.7,0.2,1.3,0.5,1.8,0.9c0.5,0.4,0.8,0.8,1,1.3
			c0.2,0.5,0.3,1.1,0.3,1.8c0,0.8-0.2,1.4-0.5,2c-0.3,0.6-0.8,1.1-1.4,1.5c-0.6,0.4-1.3,0.7-2.2,1c-0.8,0.2-1.7,0.3-2.7,0.3
			c-1.1,0-2.1-0.1-3-0.4c-0.8-0.2-1.5-0.6-2.1-1c-0.6-0.4-1-0.9-1.3-1.4c-0.3-0.5-0.4-1.1-0.4-1.6c0-0.1,0-0.2,0.1-0.3
			c0.1-0.1,0.2-0.1,0.3-0.1h3.9c0.2,0,0.4,0,0.5,0.1c0.1,0.1,0.2,0.1,0.4,0.3c0.2,0.2,0.4,0.3,0.6,0.3c0.2,0.1,0.5,0.1,0.9,0.1
			c0.5,0,0.8,0,1.1-0.1c0.3-0.1,0.4-0.2,0.4-0.4c0-0.2-0.2-0.4-0.6-0.6c-0.4-0.1-1.1-0.3-2.1-0.4c-0.8-0.1-1.5-0.3-2.2-0.5
			c-0.7-0.2-1.2-0.5-1.7-0.9c-0.5-0.4-0.8-0.8-1.1-1.3c-0.2-0.5-0.4-1.1-0.4-1.8c0-0.7,0.2-1.3,0.5-1.9c0.3-0.6,0.7-1.1,1.3-1.5
			c0.5-0.4,1.2-0.7,2-1C167.3,20.5,168.1,20.4,169.1,20.4"/>
	</defs>
	<clipPath id="SVGID_114_">
		<use xlink:href="#SVGID_113_"  style="overflow:visible;"/>
	</clipPath>
	<g class="st56">
		<defs>
			<rect id="SVGID_115_" x="-29.5" y="-29.4" width="1220.5" height="4337.1"/>
		</defs>
		<clipPath id="SVGID_116_">
			<use xlink:href="#SVGID_115_"  style="overflow:visible;"/>
		</clipPath>
		<rect x="158.2" y="16.1" class="st57" width="22" height="23.2"/>
	</g>
</g>
<g>
	<defs>
		<circle id="SVGID_117_" cx="17.4" cy="21.2" r="7"/>
	</defs>
	<clipPath id="SVGID_118_">
		<use xlink:href="#SVGID_117_"  style="overflow:visible;"/>
	</clipPath>
	<g class="st58">
		<defs>
			<rect id="SVGID_119_" x="-29.5" y="-29.4" width="1220.5" height="4337.1"/>
		</defs>
		<clipPath id="SVGID_120_">
			<use xlink:href="#SVGID_119_"  style="overflow:visible;"/>
		</clipPath>
		<rect x="6.1" y="9.9" class="st59" width="22.6" height="22.6"/>
	</g>
</g>
<g>
	<defs>
		<path id="SVGID_121_" d="M34.6,36.2C34.6,36.2,34.6,36.2,34.6,36.2c-3.7-2.6-6.5-6.4-6.5-6.4c-2.3-3.1-4.4-5.1-5.2-5.7
			c-5.3-3.6-9.9-5.8-12.8-7C7,15.9,5,15.5,5,15.5c-0.1,0-0.1-0.1-0.1-0.2c0-0.1,0.1-0.1,0.2-0.1c0,0,2,0.4,5.2,1.7
			c2.9,1.2,7.6,3.3,12.9,7l0,0c0.8,0.6,2.9,2.6,5.2,5.8c0,0,2.8,3.8,6.4,6.3c0.1,0.1,0.1,0.1,0,0.2C34.7,36.2,34.7,36.2,34.6,36.2"
			/>
	</defs>
	<clipPath id="SVGID_122_">
		<use xlink:href="#SVGID_121_"  style="overflow:visible;"/>
	</clipPath>
	<g class="st60">
		<defs>
			<rect id="SVGID_123_" x="-29.5" y="-29.4" width="1220.5" height="4337.1"/>
		</defs>
		<clipPath id="SVGID_124_">
			<use xlink:href="#SVGID_123_"  style="overflow:visible;"/>
		</clipPath>
		<rect x="0.6" y="10.9" class="st61" width="38.4" height="29.5"/>
	</g>
</g>
</svg>
