<?xml version="1.0" encoding="utf-8"?>
<!-- Generator: Adobe Illustrator 21.0.1, SVG Export Plug-In . SVG Version: 6.00 Build 0)  -->
<svg version="1.1" id="Layer_1" xmlns="http://www.w3.org/2000/svg" xmlns:xlink="http://www.w3.org/1999/xlink" x="0px" y="0px"
	 viewBox="0 0 60 60" style="enable-background:new 0 0 60 60;" xml:space="preserve">
<style type="text/css">
	.st0{clip-path:url(#SVGID_2_);}
	.st1{clip-path:url(#SVGID_4_);fill:#FAFAFA;}
	.st2{clip-path:url(#SVGID_6_);}
	.st3{clip-path:url(#SVGID_8_);fill:#FAFAFA;}
	.st4{clip-path:url(#SVGID_10_);}
	.st5{clip-path:url(#SVGID_12_);fill:#FAFAFA;}
	.st6{clip-path:url(#SVGID_14_);}
	.st7{clip-path:url(#SVGID_16_);fill:#FAFAFA;}
	.st8{clip-path:url(#SVGID_18_);}
	.st9{clip-path:url(#SVGID_20_);fill:#FAFAFA;}
	.st10{clip-path:url(#SVGID_22_);}
	.st11{clip-path:url(#SVGID_24_);fill:#FAFAFA;}
	.st12{clip-path:url(#SVGID_26_);}
	.st13{clip-path:url(#SVGID_28_);fill:#FAFAFA;}
</style>
<g>
	<defs>
		<path id="SVGID_1_" d="M37.1,18.1h-2.7c-2.2,0-2.5,1.1-2.5,2.5v3.2h5l-0.7,5h-4.3V42h-5.2V28.9h-4.5v-5h4.5V20
			c-0.2-4.5,2.5-6.8,6.5-6.8c1.8,0,3.4,0.2,4,0.2V18.1z M0.8-1.2v57.6h57.6V-1.2H0.8z"/>
	</defs>
	<clipPath id="SVGID_2_">
		<use xlink:href="#SVGID_1_"  style="overflow:visible;"/>
	</clipPath>
	<g class="st0">
		<defs>
			<rect id="SVGID_3_" x="-186.7" y="-1786.9" width="720" height="2558.5"/>
		</defs>
		<clipPath id="SVGID_4_">
			<use xlink:href="#SVGID_3_"  style="overflow:visible;"/>
		</clipPath>
		<rect x="-1.7" y="-3.7" class="st1" width="62.6" height="62.6"/>
	</g>
</g>
<g>
	<g>
		<defs>
			<path id="SVGID_5_" d="M222.4,29.6c0,4.9-4,8.8-8.8,8.8s-8.8-4-8.8-8.8c0-0.7,0.2-1.6,0.4-2.3h-2.7v12.6c0,0.4,0.4,0.7,0.7,0.7
				h20.7c0.4,0,0.7-0.4,0.7-0.7V27.3h-2.7C222.2,28,222.4,28.9,222.4,29.6z"/>
		</defs>
		<clipPath id="SVGID_6_">
			<use xlink:href="#SVGID_5_"  style="overflow:visible;"/>
		</clipPath>
		<g class="st2">
			<defs>
				<rect id="SVGID_7_" x="-99" y="-1784.9" width="720" height="2558.5"/>
			</defs>
			<clipPath id="SVGID_8_">
				<use xlink:href="#SVGID_7_"  style="overflow:visible;"/>
			</clipPath>
		</g>
	</g>
	<g>
		<defs>
			<path id="SVGID_9_" d="M220.1,24h4c0.4,0,0.7-0.4,0.7-0.7v-4c0-0.4-0.4-0.7-0.7-0.7h-4c-0.4,0-0.7,0.4-0.7,0.7v4
				C219.2,23.7,219.5,24,220.1,24z"/>
		</defs>
		<clipPath id="SVGID_10_">
			<use xlink:href="#SVGID_9_"  style="overflow:visible;"/>
		</clipPath>
		<g class="st4">
			<defs>
				<rect id="SVGID_11_" x="-99" y="-1784.9" width="720" height="2558.5"/>
			</defs>
			<clipPath id="SVGID_12_">
				<use xlink:href="#SVGID_11_"  style="overflow:visible;"/>
			</clipPath>
		</g>
	</g>
	<g>
		<defs>
			<circle id="SVGID_13_" cx="213.6" cy="29.6" r="5.6"/>
		</defs>
		<clipPath id="SVGID_14_">
			<use xlink:href="#SVGID_13_"  style="overflow:visible;"/>
		</clipPath>
		<g class="st6">
			<defs>
				<rect id="SVGID_15_" x="-99" y="-1784.9" width="720" height="2558.5"/>
			</defs>
			<clipPath id="SVGID_16_">
				<use xlink:href="#SVGID_15_"  style="overflow:visible;"/>
			</clipPath>
		</g>
	</g>
	<g>
		<defs>
			<path id="SVGID_17_" d="M228,40.6c0,1.8-1.6,3.4-3.4,3.4h-22c-1.8,0-3.4-1.4-3.4-3.4v-22c0-2,1.6-3.4,3.4-3.4h22
				c1.8,0,3.4,1.4,3.4,3.4V40.6z M184.8,0.8v57.6h57.6V0.8H184.8z"/>
		</defs>
		<clipPath id="SVGID_18_">
			<use xlink:href="#SVGID_17_"  style="overflow:visible;"/>
		</clipPath>
		<g class="st8">
			<defs>
				<rect id="SVGID_19_" x="-99" y="-1784.9" width="720" height="2558.5"/>
			</defs>
			<clipPath id="SVGID_20_">
				<use xlink:href="#SVGID_19_"  style="overflow:visible;"/>
			</clipPath>
		</g>
	</g>
</g>
<g>
	<defs>
		<path id="SVGID_21_" d="M408.8,44c-6.3,0.2-8.6-4.5-8.6-7.7v-9.4h-2.9v-3.8c4.3-1.6,5.4-5.6,5.6-7.7c0.2-0.2,0.2-0.2,0.4-0.2h4.1
			v7.4h5.8v4.3h-5.8v9c0,1.3,0.5,2.9,2.7,2.9c0.7,0,1.8-0.2,2.3-0.5l1.4,4.1C413.3,43.1,411,44,408.8,44z M376.8,0.8v57.6h57.6V0.8
			H376.8z"/>
	</defs>
	<clipPath id="SVGID_22_">
		<use xlink:href="#SVGID_21_"  style="overflow:visible;"/>
	</clipPath>
	<g class="st10">
		<defs>
			<rect id="SVGID_23_" x="-2.4" y="-1784.9" width="720" height="2558.5"/>
		</defs>
		<clipPath id="SVGID_24_">
			<use xlink:href="#SVGID_23_"  style="overflow:visible;"/>
		</clipPath>
	</g>
</g>
</svg>
